
<svg aria-hidden="true" style="position: absolute; width: 0; height: 0; overflow: hidden;" version="1.1" xmlns="http://www.w3.org/2000/svg" xmlns:xlink="http://www.w3.org/1999/xlink">
<defs>

<symbol id="icon-free-icon-font-call-incoming-5070414" viewBox="0 0 32 32">
<path d="M19.973 9.364v-5.333c0-0.736 0.597-1.333 1.333-1.333s1.333 0.597 1.333 1.333v0 3.481c0.84-0.845 6.268-6.301 7.057-7.091 0.243-0.251 0.583-0.407 0.959-0.407 0.736 0 1.333 0.597 1.333 1.333 0 0.376-0.156 0.716-0.407 0.959l-0 0c-0.789 0.789-6.189 6.22-7.024 7.057h3.415c0.736 0 1.333 0.597 1.333 1.333s-0.597 1.333-1.333 1.333v0h-5.333c-1.473 0-2.667-1.194-2.667-2.667v0zM30.767 22.349c0.746 0.748 1.207 1.779 1.207 2.919s-0.461 2.171-1.207 2.919l0-0-1.216 1.4c-10.921 10.451-37.492-16.112-27.2-27.067l1.533-1.333c0.739-0.716 1.747-1.157 2.858-1.157 1.138 0 2.167 0.462 2.911 1.209l0 0c0.041 0.040 2.511 3.251 2.511 3.251 0.703 0.741 1.136 1.745 1.136 2.85 0 1.109-0.436 2.117-1.145 2.861l0.002-0.002-1.544 1.941c1.764 4.207 5.039 7.488 9.129 9.218l0.112 0.042 1.953-1.553c0.741-0.71 1.748-1.147 2.858-1.147 1.105 0 2.109 0.434 2.851 1.14l-0.002-0.002s3.212 2.471 3.253 2.511zM28.933 24.288s-3.191-2.456-3.232-2.496c-0.265-0.263-0.63-0.425-1.033-0.425s-0.768 0.162-1.033 0.425l0-0c-0.036 0.035-2.725 2.179-2.725 2.179-0.226 0.181-0.515 0.29-0.83 0.29-0.171 0-0.334-0.032-0.484-0.091l0.009 0.003c-5.456-2.070-9.689-6.296-11.721-11.611l-0.046-0.137c-0.062-0.148-0.098-0.321-0.098-0.502 0-0.316 0.11-0.606 0.293-0.834l-0.002 0.003s2.144-2.685 2.18-2.72c0.263-0.265 0.425-0.63 0.425-1.033s-0.162-0.768-0.425-1.033l0 0c-0.040-0.040-2.496-3.233-2.496-3.233-0.258-0.232-0.602-0.375-0.979-0.375-0.404 0-0.769 0.163-1.034 0.427l0-0-1.533 1.333c-7.523 9.044 15.507 30.796 23.431 23.311l1.216-1.401c0.298-0.274 0.484-0.665 0.484-1.1 0-0.376-0.139-0.719-0.368-0.982l0.002 0.002z"></path>
</symbol>

<symbol id="icon-_24px1" viewBox="0 0 48 32">
<path d="M0 5.333v-5.333h48v5.333h-48zM0 18.667h48v-5.333h-48v5.333zM0 32h48v-5.333h-48v5.333z"></path>
</symbol>

<symbol id="icon-Vector" viewBox="0 0 22 32">
<path fill="#6e3c96" style="fill: var(--color1, #6e3c96)" d="M10.811 0c-5.971 0-10.811 4.477-10.811 10 0 10 10.811 22 10.811 22s10.811-12 10.811-22c0-5.523-4.84-10-10.811-10zM10.811 16.125c-3.657 0-6.622-2.742-6.622-6.125s2.965-6.125 6.622-6.125c3.657 0 6.622 2.742 6.622 6.125s-2.965 6.125-6.622 6.125zM6.622 10c0-2.14 1.876-3.875 4.189-3.875s4.189 1.735 4.189 3.875-1.876 3.875-4.189 3.875c-2.314 0-4.189-1.735-4.189-3.875z"></path>
</symbol>


</defs>
</svg>